ply
format ascii 1.0
comment VTK generated PLY File
obj_info vtkPolyData points and polygons: vtk4.0
element vertex 200
property float x
property float y
property float z
element face 357
property list uchar int vertex_indices
end_header
-2.096 -1.90461 14.9592 
-2.19728 -1.82499 15.1666 
-2.24864 -2.16791 15.5925 
-2.46667 -2.24976 15.7209 
-2.6379 -2.6572 16.01 
-2.96821 -3.12834 16.5129 
-3.27958 -3.38172 16.7381 
-3.54599 -3.82916 16.8986 
-4.03174 -4.37157 16.885 
-4.30867 -4.74323 17.316 
-4.12465 -6.72612 18.3248 
-4.18089 -7.12226 18.3315 
-4.31731 -7.2087 18.2349 
-4.46492 -7.08294 18.3639 
-4.46572 -7.0386 18.3305 
-4.57653 -7.03756 18.2741 
-4.59759 -7.01576 18.2701 
-4.58657 -7.06045 18.2322 
-5.60761 -6.21563 17.2564 
-6.03404 -7.30461 18.5943 
-6.43775 -7.86218 20.1889 
-6.26294 -8.3244 19.9577 
-6.03203 -10.1139 20.913 
-5.8773 -11.0205 20.9602 
-6.06381 -12.6745 23.0731 
-6.14794 -15.1131 24.3299 
-6.40682 -16.2197 25.479 
-7.0691 -16.8554 25.7698 
-7.84617 -18.4115 25.9241 
-8.06948 -19.0938 26.3043 
-8.6266 -20.6363 26.8957 
-9.14328 -21.3763 27.8027 
-9.37313 -21.9349 28.2166 
-9.65911 -22.7409 28.5139 
-9.96193 -23.4169 28.5564 
-10.1276 -24.0953 28.3797 
-10.4195 -24.8435 28.1083 
-10.6468 -26.1649 27.3414 
-11.0423 -27.4599 26.8417 
-11.137 -28.4102 26.285 
-10.9138 -28.6644 25.7884 
-11.4203 -29.7542 24.8881 
-11.391 -30.6268 24.6538 
-11.4369 -31.9133 24.1883 
-11.2638 -34.2878 23.6662 
-11.213 -34.8055 23.236 
-11.2483 -34.8842 23.0374 
-11.3138 -35.4826 22.1945 
-11.0147 -36.4125 20.9827 
-10.9073 -36.8138 19.9791 
-10.9106 -37.1182 19.1466 
-10.9708 -37.425 18.205 
-10.6225 -38.111 16.4046 
-10.4476 -37.8697 15.217 
-10.7988 -37.7263 14.3897 
-10.9405 -37.7513 13.3624 
-10.9611 -37.7323 12.2699 
-11.0092 -37.6314 11.4339 
-11.0982 -37.6067 10.5326 
-11.1898 -37.4296 9.91991 
-11.2168 -37.1927 9.43884 
-11.188 -37.0781 8.81911 
-11.2433 -36.5939 8.23904 
-11.2488 -35.8974 7.7503 
-11.3501 -35.1389 7.28908 
-11.3407 -34.4491 7.4453 
-11.0235 -34.0304 6.86154 
-10.7857 -33.7486 6.24374 
-10.6181 -33.2163 6.07862 
-10.6616 -32.4537 6.14461 
-10.6392 -31.5937 6.21264 
-10.5399 -30.5475 5.96628 
-10.4436 -29.3297 6.1086 
-10.4779 -28.3037 6.83858 
-10.1797 -26.7869 6.77317 
-10.0242 -25.3134 7.67401 
-10.0586 -24.6441 8.20972 
-9.60256 -23.9492 7.93306 
-9.58259 -22.6856 8.06699 
-9.49662 -21.8758 8.35388 
-9.26969 -19.7786 6.97482 
-9.20322 -18.6879 6.76327 
-8.77458 -17.45 6.04053 
-8.77308 -16.0819 5.87762 
-8.73265 -14.5945 5.9814 
-8.67423 -14.0416 5.36046 
-8.54962 -12.7787 5.05804 
-8.43089 -11.4385 4.64587 
-7.74825 -10.4076 5.39016 
-7.30425 -10.0068 5.91243 
-6.69588 -9.35497 6.3863 
-6.18306 -8.38432 6.72582 
-5.5302 -7.1224 7.36639 
-5.17094 -6.34969 8.64924 
-4.61584 -4.95341 9.05996 
-4.31907 -4.7116 10.7543 
-3.97538 -4.58838 11.7388 
-4.19748 -4.57119 12.2028 
-4.45124 -5.36304 13.3492 
-4.87326 -6.45448 14.8076 
-5.1223 -8.18653 15.6218 
-5.47322 -10.1432 16.1876 
-5.63253 -12.7925 17.2241 
-5.77588 -14.208 17.3338 
-5.90239 -14.3008 17.5385 
-6.18735 -15.0181 18.4792 
-6.47104 -16.1277 19.6607 
-6.8636 -17.1772 20.7642 
-7.38961 -18.5056 21.8663 
-8.18942 -20.6041 22.2604 
-8.90324 -23.008 22.3414 
-9.40655 -24.0593 22.802 
-9.54763 -24.8064 22.2516 
-9.86398 -25.8236 22.1298 
-10.2475 -26.4806 21.7935 
-10.4632 -27.604 22.054 
-10.7898 -28.5338 21.4007 
-10.9932 -30.0171 21.4762 
-11.2008 -31.1309 20.8726 
-11.294 -32.1387 20.2347 
-11.0447 -32.5649 19.0764 
-11.0402 -32.784 16.967 
-11.0663 -32.996 16.0484 
-11.003 -32.6174 14.3099 
-10.9898 -32.2954 13.4777 
-10.9043 -32.1661 13.1295 
-11.1525 -31.3186 11.6061 
-11.1701 -31.0985 10.7075 
-10.9888 -30.6952 9.40783 
-10.7828 -30.2919 8.97582 
-10.4807 -28.8002 7.93462 
-10.4808 -28.4486 7.72382 
-10.4487 -27.2279 7.22374 
-10.2934 -26.4992 7.69415 
-9.91247 -23.9799 8.37591 
-9.79726 -23.2773 9.20238 
-9.48549 -21.5631 9.40625 
-9.28783 -20.1676 9.75316 
-8.93871 -18.1876 10.4287 
-8.72354 -16.8933 10.6561 
-8.45609 -15.6197 11.3582 
-8.07002 -14.872 12.1782 
-7.58319 -13.7044 12.8312 
-7.09219 -12.5843 13.35 
-6.70149 -11.4285 13.6672 
-6.22404 -10.593 14.0368 
-5.48474 -9.90637 13.8862 
-5.86185 -9.51162 13.1598 
-5.47793 -8.81361 12.9276 
-5.55236 -9.48842 11.3092 
-5.86105 -7.94566 13.2145 
-6.00148 -8.1088 9.71503 
-5.61177 -7.00473 8.37294 
-5.52009 -6.88039 6.88254 
-5.84834 -7.45049 6.14257 
-6.6692 -9.17702 5.96504 
-6.86799 -10.061 5.92316 
-7.49673 -10.8806 6.33998 
-7.88382 -11.6092 7.14269 
-8.14624 -12.5085 7.78634 
-7.91696 -13.3792 11.1833 
-8.00703 -14.3781 12.2217 
-7.94794 -15.8698 13.1681 
-8.04924 -16.7937 13.768 
-7.97194 -18.7383 13.4671 
-8.31537 -19.0471 15.2093 
-8.35358 -20.7518 16.6949 
-8.2584 -21.4686 17.3361 
-8.84662 -22.0782 19.6045 
-9.03486 -22.6825 21.0167 
-9.41222 -23.3317 23.0335 
-9.3914 -23.3698 23.6008 
-8.85495 -22.2541 23.0129 
-8.05297 -19.852 21.432 
-7.49427 -18.0627 19.5588 
-6.81417 -15.7207 17.0417 
-6.72234 -14.4197 16.0342 
-6.54341 -13.3008 15.697 
-6.76496 -12.6408 13.3304 
-6.87423 -11.6288 12.3568 
-6.88176 -10.7847 11.2156 
-6.96187 -11.2854 9.56148 
-6.84459 -11.9394 8.98349 
-7.63762 -11.9869 8.7798 
-8.284 -12.5034 7.67404 
-8.50279 -13.7222 7.39195 
-8.46993 -15.5695 7.31663 
-9.01607 -15.8959 7.0565 
-9.36422 -17 7.35744 
-9.36747 -17.4363 7.87612 
-9.32516 -18.836 8.96524 
-9.31278 -19.4426 10.2106 
-9.2194 -20.7615 11.8813 
-9.26411 -21.6842 12.8441 
-9.28991 -22.7785 14.182 
-9.00161 -22.5017 16.9758 
-9.13723 -23.1217 17.5224 
-9.53988 -24.1543 20.1893 
-9.67451 -24.4895 20.5781 
-10.3357 -26.2123 22.4884 
3 4 3 2 
3 20 19 12 
3 5 4 2 
3 19 17 12 
3 80 77 74 
3 2 0 1 
3 9 8 7 
3 3 0 2 
3 10 6 5 
3 4 0 3 
3 10 7 6 
3 96 95 0 
3 10 9 7 
3 6 4 5 
3 8 4 6 
3 24 22 20 
3 8 6 7 
3 20 11 10 
3 17 16 15 
3 24 20 10 
3 18 8 9 
3 20 12 11 
3 16 10 14 
3 17 15 12 
3 14 11 13 
3 14 10 11 
3 13 11 12 
3 18 9 10 
3 14 13 12 
3 42 40 39 
3 15 14 12 
3 16 14 15 
3 19 18 17 
3 18 10 16 
3 18 16 17 
3 24 23 22 
3 55 54 52 
3 22 21 20 
3 82 81 80 
3 26 25 24 
3 21 19 20 
3 101 100 19 
3 29 28 27 
3 101 19 21 
3 77 76 75 
3 31 29 27 
3 102 22 23 
3 31 27 26 
3 104 103 102 
3 31 30 29 
3 27 25 26 
3 107 106 25 
3 32 31 26 
3 105 104 23 
3 106 105 24 
3 106 24 25 
3 172 171 170 
3 170 111 110 
3 171 30 31 
3 38 37 36 
3 171 31 32 
3 172 170 110 
3 171 32 33 
3 44 43 39 
3 109 108 28 
3 42 41 40 
3 171 35 36 
3 43 42 39 
3 40 38 39 
3 48 47 45 
3 171 33 34 
3 171 36 37 
3 199 115 114 
3 199 38 40 
3 47 46 45 
3 119 118 43 
3 46 44 45 
3 118 117 43 
3 117 42 43 
3 119 46 47 
3 119 43 44 
3 117 116 41 
3 54 53 52 
3 120 119 47 
3 53 51 52 
3 116 115 41 
3 58 57 56 
3 115 40 41 
3 122 121 51 
3 122 51 53 
3 61 60 59 
3 123 122 54 
3 125 124 57 
3 60 58 59 
3 123 56 57 
3 62 60 61 
3 66 65 64 
3 63 60 62 
3 67 66 64 
3 125 58 60 
3 65 63 64 
3 71 69 68 
3 122 53 54 
3 126 125 60 
3 71 70 69 
3 68 66 67 
3 69 66 68 
3 126 60 63 
3 123 55 56 
3 74 73 72 
3 128 66 69 
3 99 8 18 
3 129 128 70 
3 77 75 74 
3 199 114 113 
3 80 78 77 
3 130 72 73 
3 100 18 19 
3 130 71 72 
3 155 91 90 
3 199 112 111 
3 80 79 78 
3 134 76 77 
3 82 80 74 
3 135 134 77 
3 104 102 23 
3 85 84 83 
3 137 136 79 
3 85 83 82 
3 102 101 22 
3 190 189 138 
3 189 188 186 
3 101 21 22 
3 185 86 184 
3 155 89 88 
3 185 84 85 
3 155 154 91 
3 157 86 87 
3 98 97 4 
3 157 87 88 
3 154 153 92 
3 179 144 143 
3 154 92 91 
3 100 99 18 
3 153 94 93 
3 181 157 90 
3 95 94 0 
3 150 148 149 
3 99 98 8 
3 97 96 0 
3 95 93 94 
3 97 0 4 
3 151 95 150 
3 98 4 8 
3 98 95 96 
3 182 181 160 
3 98 96 97 
3 186 160 140 
3 157 88 89 
3 188 187 186 
3 147 145 144 
3 137 79 80 
3 179 149 147 
3 105 23 24 
3 186 140 139 
3 108 107 25 
3 181 180 160 
3 108 25 27 
3 190 137 80 
3 108 27 28 
3 176 163 162 
3 194 133 76 
3 176 175 163 
3 109 28 29 
3 136 135 79 
3 109 29 30 
3 175 165 163 
3 199 113 112 
3 174 166 165 
3 199 111 37 
3 165 164 163 
3 133 75 76 
3 135 78 79 
3 120 48 49 
3 198 169 110 
3 120 47 48 
3 174 107 108 
3 121 120 51 
3 198 110 111 
3 117 41 42 
3 195 194 166 
3 126 63 65 
3 116 114 115 
3 119 44 46 
3 196 195 167 
3 120 49 50 
3 118 116 117 
3 120 50 51 
3 121 116 118 
3 123 54 55 
3 120 118 119 
3 125 57 58 
3 121 118 120 
3 124 123 57 
3 123 116 121 
3 127 126 65 
3 123 121 122 
3 127 65 66 
3 124 116 123 
3 128 127 66 
3 125 116 124 
3 128 69 70 
3 196 116 125 
3 130 129 71 
3 194 130 133 
3 129 70 71 
3 130 126 127 
3 132 73 74 
3 129 127 128 
3 131 130 73 
3 130 127 129 
3 132 131 73 
3 194 126 130 
3 133 132 74 
3 133 74 75 
3 133 130 131 
3 133 131 132 
3 135 77 78 
3 173 168 167 
3 175 105 106 
3 135 76 134 
3 177 176 142 
3 194 125 126 
3 189 186 139 
3 174 108 173 
3 178 142 143 
3 175 106 174 
3 180 179 160 
3 175 103 104 
3 181 90 151 
3 164 138 139 
3 177 145 101 
3 162 139 140 
3 146 100 101 
3 162 141 142 
3 147 146 145 
3 176 162 142 
3 152 151 91 
3 178 177 142 
3 150 99 100 
3 177 144 145 
3 150 98 99 
3 146 101 145 
3 151 90 91 
3 148 100 146 
3 151 93 95 
3 148 146 147 
3 181 158 157 
3 149 148 147 
3 150 95 98 
3 150 100 148 
3 152 91 92 
3 151 150 149 
3 152 92 93 
3 152 93 151 
3 154 88 87 
3 153 93 92 
3 156 89 155 
3 155 88 154 
3 156 155 90 
3 157 156 90 
3 179 143 142 
3 157 89 156 
3 161 141 140 
3 158 86 157 
3 186 185 160 
3 184 86 158 
3 161 160 142 
3 185 183 160 
3 161 142 141 
3 161 140 160 
3 192 137 191 
3 162 140 141 
3 192 136 137 
3 163 139 162 
3 194 193 166 
3 164 139 163 
3 174 173 167 
3 193 135 136 
3 169 168 109 
3 193 192 164 
3 197 168 169 
3 193 165 166 
3 172 110 169 
3 195 166 167 
3 198 197 169 
3 196 167 168 
3 172 109 30 
3 171 37 111 
3 171 34 35 
3 171 111 170 
3 172 169 109 
3 172 30 171 
3 173 108 109 
3 173 109 168 
3 174 106 107 
3 174 167 166 
3 175 104 105 
3 175 174 165 
3 177 102 103 
3 176 103 175 
3 177 101 102 
3 177 103 176 
3 178 143 144 
3 178 144 177 
3 179 147 144 
3 179 142 160 
3 180 151 149 
3 180 149 179 
3 185 159 183 
3 181 151 180 
3 183 182 160 
3 183 158 181 
3 183 159 158 
3 183 181 182 
3 185 85 86 
3 184 158 159 
3 187 83 84 
3 185 184 159 
3 189 81 82 
3 186 84 185 
3 188 82 83 
3 187 84 186 
3 189 139 138 
3 188 83 187 
3 190 80 81 
3 189 82 188 
3 191 137 190 
3 190 81 189 
3 191 190 138 
3 192 191 138 
3 192 138 164 
3 193 164 165 
3 194 76 135 
3 193 136 192 
3 198 112 113 
3 194 135 193 
3 197 196 168 
3 196 125 194 
3 198 114 116 
3 196 194 195 
3 198 111 112 
3 198 116 196 
3 198 113 114 
3 198 196 197 
3 199 37 38 
3 199 40 115 
