ply
format ascii 1.0
comment VTK generated PLY File
obj_info vtkPolyData points and polygons: vtk4.0
element vertex 200
property float x
property float y
property float z
element face 331
property list uchar int vertex_indices
end_header
-23.7725 63.2019 -3.11366 
-23.6914 63.3875 -3.01344 
-23.4791 63.6017 -2.76148 
-23.3044 64.115 -2.60958 
-22.9352 64.0213 -2.18013 
-22.4517 64.2314 -1.6758 
-22.1466 64.363 -1.35737 
-21.7999 64.437 -0.969949 
-21.4357 64.3463 -0.541969 
-21.2881 64.4668 -0.31753 
-20.6237 63.9983 1.3242 
-20.5419 63.7844 1.61596 
-20.5377 63.715 1.65315 
-20.5485 63.8918 1.55848 
-20.5499 63.9144 1.54636 
-20.5503 63.9208 1.54292 
-20.5515 63.9411 1.53206 
-20.5485 63.8907 1.55908 
-20.7433 64.1666 0.970067 
-20.4194 64.5559 1.87776 
-19.8826 65.6566 3.46906 
-19.8973 64.9897 3.66117 
-19.7159 64.4792 4.98856 
-19.7106 63.9605 5.72439 
-19.147 64.8643 8.47157 
-18.9905 64.4403 11.094 
-18.6455 64.7799 12.9714 
-18.4701 64.6002 13.7217 
-18.0814 63.5513 15.5926 
-17.8761 63.6253 16.2368 
-17.7941 63.6503 16.8165 
-17.2795 63.7421 19.5432 
-17.1626 63.8022 19.9141 
-17.0349 64.0956 20.6111 
-16.914 63.8131 21.0106 
-16.8952 63.4429 20.9486 
-16.6514 61.9744 21.3135 
-15.9609 59.8893 21.3595 
-14.5362 56.9373 21.5049 
-14.5362 56.9373 21.5049 
-14.5362 56.9373 21.5049 
-11.183 53.0401 21.6957 
-11.183 53.0401 21.6957 
-11.183 53.0401 21.6957 
-8.40047 51.5673 21.4824 
-8.40047 51.5673 21.4824 
-8.40047 51.5673 21.4824 
-7.46681 51.0456 21.554 
-7.46732 51.0371 21.5552 
-5.33955 49.5826 21.7752 
-5.57579 49.3897 21.7791 
-5.40143 48.7218 21.808 
-5.17692 46.8727 21.8851 
-5.15353 46.0781 21.9172 
-4.7228 45.6845 21.907 
-4.33542 44.9356 21.9012 
-4.05628 44.1231 21.8999 
-3.82545 43.5548 21.8938 
-3.52261 42.9035 21.8845 
-3.32256 42.5629 21.8765 
-3.22838 42.3357 21.8728 
-3.10705 41.8661 21.8645 
-3.00866 41.6983 21.8572 
-3.02311 41.701 21.8579 
-2.40279 47.0742 14.9939 
-2.57016 47.0228 14.6651 
-2.7997 46.6544 13.3266 
-2.94647 46.4803 12.8199 
-3.39823 46.4329 12.4496 
-3.51596 46.3675 12.2099 
-3.6368 46.3183 11.9192 
-3.96803 46.174 11.0519 
-4.61186 46.172 10.3907 
-5.33591 46.3394 10.2105 
-6.09537 46.2966 9.29435 
-7.21791 46.5558 9.04304 
-7.71333 46.7571 9.04245 
-8.3108 46.789 8.22567 
-8.88144 46.8191 7.26155 
-9.34836 46.9377 6.87538 
-9.59735 46.789 4.2725 
-9.99147 46.8231 3.24971 
-10.611 46.9868 1.61438 
-11.9145 47.7987 0.24874 
-11.8697 47.818 -0.870415 
-11.7452 47.8475 -1.75981 
-13.2564 48.8074 -2.61726 
-13.3567 48.7517 -3.09378 
-14.9735 49.6265 -3.16526 
-15.2945 49.8254 -3.34884 
-16.8941 51.1852 -3.17565 
-17.3913 51.6219 -3.36171 
-18.84 52.6969 -3.97775 
-20.0745 54.7466 -3.1954 
-20.777 55.4458 -3.4975 
-21.5964 56.9961 -3.13656 
-22.0423 58.1855 -2.78287 
-22.1401 58.9385 -2.40215 
-22.0118 60.1315 -1.54474 
-21.2304 61.2938 0.362347 
-20.557 61.0343 1.62354 
-19.872 60.5152 3.63536 
-19.2021 59.3987 5.99375 
-18.5995 58.3779 7.08559 
-18.6142 58.433 7.10221 
-18.5103 58.9131 8.21272 
-18.4807 59.5954 9.46593 
-18.3158 59.9543 11.0083 
-17.9855 59.7169 12.8718 
-17.4609 59.2882 14.9282 
-16.4536 57.9701 17.097 
-15.894 57.29 18.4506 
-15.7753 56.9932 18.4957 
-14.3072 55.9818 20.9988 
-13.2719 54.1956 20.8606 
-11.6228 53.1923 21.4711 
-11.1021 52.9519 21.6605 
-8.40047 51.5673 21.4824 
-8.40047 51.5673 21.4824 
-8.38242 51.5535 21.4774 
-7.46681 51.0456 21.554 
-6.33555 50.0751 20.475 
-5.98589 49.5968 19.9736 
-5.69972 48.9101 18.4699 
-5.50801 48.5726 17.6087 
-5.46777 48.4181 17.2391 
-5.1742 47.9972 15.7534 
-4.94562 47.8265 14.9696 
-4.76392 47.1394 13.4696 
-5.01926 47.0969 13.1457 
-5.38103 46.7302 11.3356 
-5.46188 46.6363 10.9713 
-5.82319 46.3944 9.9006 
-6.46456 46.5649 9.77143 
-8.12775 46.7742 8.48697 
-9.47694 47.3857 8.62392 
-10.5694 47.8103 7.66384 
-11.9331 48.6464 7.05729 
-13.5419 49.3797 5.36242 
-14.0525 49.6997 4.94086 
-16.6546 52.8702 4.41243 
-16.6546 52.8702 4.41243 
-18.037 54.8644 3.70893 
-18.2325 55.2362 3.77957 
-19.4958 57.2921 2.60397 
-19.8371 58.3555 1.9363 
-19.8914 58.5512 1.80588 
-19.8779 58.2251 1.72271 
-20.0935 58.1846 1.33442 
-20.037 56.265 0.625202 
-20.5718 58.6256 0.492228 
-19.4152 53.9923 -2.68347 
-19.3948 53.8523 -3.10429 
-18.8714 52.7217 -3.9965 
-17.7607 51.7153 -3.71955 
-16.5596 50.7145 -3.48572 
-15.2945 49.8254 -3.34884 
-15.0094 49.7633 -2.64094 
-14.6286 49.5434 -2.42359 
-14.7023 49.5491 -2.03535 
-16.6631 52.8424 4.3701 
-16.6546 52.8702 4.41243 
-16.187 53.144 6.50861 
-16.2227 53.1977 6.51981 
-15.1586 52.6568 9.24047 
-15.45 53.0759 9.23823 
-15.5823 53.3374 10.4413 
-15.8048 54.3122 12.6095 
-16.4503 56.1878 14.0373 
-16.4237 56.9311 15.738 
-16.4728 58.1966 17.2877 
-16.5078 58.3347 17.4648 
-16.6478 58.4853 17.0803 
-17.7136 59.2748 13.6676 
-17.8113 58.1392 10.6275 
-17.941 57.1853 8.05484 
-18.4299 57.2971 6.58329 
-19.0602 57.8072 4.74092 
-18.2372 55.2451 3.78127 
-19.249 56.4197 2.45664 
-19.3794 56.0413 2.03005 
-17.1186 51.4522 -2.38641 
-17.1186 51.4522 -2.38641 
-14.8133 49.5937 -2.00778 
-14.5875 49.4959 -2.14864 
-13.4552 48.8022 -1.96022 
-11.9145 47.7987 0.24874 
-11.9137 47.7823 0.340507 
-11.9178 47.7828 2.91743 
-11.8882 47.7903 3.02979 
-11.3283 47.7415 5.22643 
-12.0788 48.7374 6.94128 
-12.4925 49.5711 9.21532 
-12.0643 49.7507 10.4395 
-11.9075 49.7826 11.0489 
-14.3303 52.4444 12.7825 
-14.4081 52.6535 13.5377 
-14.6217 53.8745 16.7293 
-14.623 53.8762 16.7295 
-14.3472 56.0955 21.018 
3 24 22 20 
3 3 2 1 
3 99 8 9 
3 69 68 67 
3 6 5 3 
3 2 0 1 
3 5 4 3 
3 20 7 6 
3 98 97 0 
3 4 2 3 
3 20 19 9 
3 97 96 0 
3 9 8 7 
3 96 95 0 
3 20 9 7 
3 98 4 5 
3 19 12 11 
3 98 6 7 
3 17 11 10 
3 153 152 92 
3 99 98 7 
3 22 21 20 
3 99 18 10 
3 12 10 11 
3 14 13 10 
3 19 17 13 
3 15 14 10 
3 19 13 14 
3 16 15 10 
3 19 14 15 
3 19 10 18 
3 19 15 16 
3 19 11 17 
3 17 10 13 
3 19 18 9 
3 19 16 10 
3 26 25 24 
3 24 23 22 
3 21 12 19 
3 66 63 62 
3 21 19 20 
3 101 100 12 
3 33 31 30 
3 101 12 21 
3 99 9 18 
3 102 101 23 
3 29 28 27 
3 106 105 102 
3 30 29 27 
3 108 107 25 
3 107 24 25 
3 33 30 27 
3 106 102 23 
3 33 32 31 
3 109 28 29 
3 36 31 32 
3 36 35 34 
3 35 32 33 
3 172 171 170 
3 35 33 34 
3 109 108 28 
3 36 32 35 
3 171 30 31 
3 47 44 41 
3 108 27 28 
3 106 23 24 
3 49 48 47 
3 171 37 111 
3 115 38 41 
3 52 51 49 
3 119 44 47 
3 51 50 49 
3 197 115 44 
3 66 64 63 
3 121 48 49 
3 54 53 52 
3 121 119 48 
3 122 121 50 
3 122 50 51 
3 123 122 52 
3 64 53 54 
3 64 54 55 
3 64 55 56 
3 64 57 58 
3 62 61 60 
3 64 60 61 
3 64 58 59 
3 64 59 60 
3 66 65 64 
3 64 61 63 
3 63 61 62 
3 67 66 62 
3 64 56 57 
3 71 67 62 
3 124 123 53 
3 80 78 74 
3 124 53 64 
3 70 69 67 
3 125 124 64 
3 71 70 67 
3 128 66 67 
3 126 125 64 
3 128 65 66 
3 128 67 68 
3 74 73 72 
3 129 69 70 
3 78 77 74 
3 131 130 71 
3 77 75 74 
3 127 126 64 
3 194 133 76 
3 132 131 73 
3 100 99 12 
3 131 72 73 
3 80 79 78 
3 199 113 112 
3 107 106 24 
3 135 77 78 
3 85 84 82 
3 101 22 23 
3 190 136 79 
3 84 83 82 
3 190 137 136 
3 190 189 138 
3 189 139 138 
3 87 86 85 
3 185 159 83 
3 185 84 85 
3 89 88 87 
3 183 181 160 
3 158 86 87 
3 155 154 91 
3 188 82 187 
3 154 92 91 
3 157 88 89 
3 101 21 22 
3 153 94 93 
3 181 157 155 
3 151 91 92 
3 99 10 12 
3 98 2 4 
3 149 93 94 
3 98 0 2 
3 180 179 178 
3 98 5 6 
3 180 149 148 
3 99 7 8 
3 150 100 146 
3 181 155 90 
3 149 94 95 
3 189 188 139 
3 150 95 96 
3 104 103 102 
3 180 178 143 
3 135 134 77 
3 181 151 180 
3 135 76 134 
3 146 100 101 
3 105 104 102 
3 105 103 104 
3 108 25 26 
3 136 78 79 
3 108 26 27 
3 163 142 143 
3 172 109 29 
3 175 165 163 
3 172 170 110 
3 174 167 166 
3 172 169 109 
3 175 166 165 
3 111 37 38 
3 175 103 105 
3 112 111 38 
3 174 106 107 
3 195 164 166 
3 112 110 111 
3 114 113 38 
3 115 114 38 
3 198 196 167 
3 198 112 113 
3 116 115 41 
3 195 194 193 
3 116 41 44 
3 116 44 115 
3 119 47 48 
3 123 44 119 
3 121 49 50 
3 122 51 52 
3 123 52 53 
3 123 119 121 
3 130 70 71 
3 123 121 122 
3 127 64 65 
3 197 44 123 
3 128 127 65 
3 197 123 124 
3 129 128 68 
3 197 114 115 
3 129 68 69 
3 195 166 167 
3 130 129 70 
3 131 71 72 
3 194 127 129 
3 129 127 128 
3 133 74 75 
3 194 129 130 
3 133 132 74 
3 194 130 133 
3 132 73 74 
3 133 75 76 
3 133 130 131 
3 133 131 132 
3 134 76 75 
3 134 75 77 
3 136 135 78 
3 174 168 167 
3 190 80 81 
3 194 126 127 
3 184 158 183 
3 192 135 136 
3 187 83 183 
3 176 175 163 
3 181 91 151 
3 192 137 191 
3 178 176 143 
3 164 138 139 
3 147 145 144 
3 163 140 142 
3 177 145 101 
3 163 162 140 
3 150 99 100 
3 178 177 176 
3 150 96 97 
3 177 144 145 
3 150 98 99 
3 146 101 145 
3 180 148 147 
3 147 146 145 
3 150 149 95 
3 148 146 147 
3 181 90 91 
3 150 148 149 
3 150 97 98 
3 150 146 148 
3 152 151 92 
3 151 93 149 
3 153 93 152 
3 152 93 151 
3 155 91 90 
3 154 153 92 
3 157 89 155 
3 158 87 88 
3 183 158 157 
3 185 83 84 
3 158 88 157 
3 160 140 139 
3 185 86 184 
3 160 142 140 
3 183 160 139 
3 174 107 108 
3 162 139 140 
3 165 162 163 
3 165 164 162 
3 192 136 137 
3 164 139 162 
3 175 174 166 
3 174 108 173 
3 194 76 135 
3 166 164 165 
3 172 110 169 
3 195 193 164 
3 169 168 109 
3 198 197 196 
3 169 110 112 
3 196 195 167 
3 171 36 37 
3 170 111 110 
3 171 31 36 
3 171 111 170 
3 172 29 30 
3 172 30 171 
3 173 108 109 
3 173 109 168 
3 174 105 106 
3 174 173 168 
3 176 163 143 
3 175 105 174 
3 176 102 103 
3 176 103 175 
3 177 101 102 
3 177 102 176 
3 180 143 142 
3 179 144 177 
3 180 147 144 
3 179 177 178 
3 180 151 149 
3 180 144 179 
3 181 180 142 
3 181 142 160 
3 183 83 159 
3 183 157 181 
3 184 86 158 
3 184 183 159 
3 185 85 86 
3 185 184 159 
3 187 82 83 
3 187 183 139 
3 189 81 82 
3 188 187 139 
3 191 137 190 
3 189 82 188 
3 190 79 80 
3 190 81 189 
3 191 190 138 
3 192 191 138 
3 192 138 164 
3 193 192 164 
3 196 125 126 
3 193 135 192 
3 197 124 125 
3 194 135 193 
3 198 167 168 
3 196 126 194 
3 198 168 169 
3 196 194 195 
3 198 113 114 
3 197 125 196 
3 198 169 112 
3 198 114 197 
3 199 112 38 
3 199 38 113 
