ply
format ascii 1.0
comment VTK generated PLY File
obj_info vtkPolyData points and polygons: vtk4.0
element vertex 200
property float x
property float y
property float z
element face 373
property list uchar int vertex_indices
end_header
14.9538 81.8287 74.7328 
15.667 81.4253 75.789 
15.8242 81.0758 76.0626 
15.9291 81.0384 75.8723 
16.0894 81.0897 75.659 
15.5314 81.5529 75.8139 
14.7068 82.1689 75.8876 
12.7454 85.1954 77.6397 
12.5925 86.0013 77.9266 
11.9616 86.913 79.369 
12.0663 86.0722 80.3583 
12.2474 85.36 80.1824 
12.4989 84.8297 79.0779 
12.7696 85.6889 77.2841 
13.7045 84.5833 75.7386 
15.5975 82.3499 74.9873 
16.8704 81.7928 74.7799 
16.8282 81.3731 74.8706 
16.5118 81.0571 75.2977 
16.0153 80.5183 76.6463 
16.2053 80.2561 78.3312 
16.2082 79.8274 79.7071 
16.3256 80.0292 79.8573 
16.1553 81.1009 80.3996 
15.3235 82.0358 81.239 
14.4461 82.6867 81.7943 
13.4144 83.5624 82.614 
12.421 84.9819 83.639 
12.0136 86.2427 84.2164 
11.5663 88.656 82.9669 
11.679 88.8629 81.9886 
11.7609 89.9123 80.0537 
11.9595 90.7401 78.6256 
12.8438 89.5897 76.8009 
13.6406 88.1263 75.4812 
15.0845 86.6337 74.8518 
15.2084 85.566 74.5991 
16.0062 82.7329 74.8941 
15.8369 81.917 75.258 
15.7271 80.8636 76.5182 
15.0747 80.945 77.4529 
14.478 81.1384 78.0558 
13.0695 82.7325 78.5963 
12.2302 85.7158 79.3019 
11.7001 90.3055 80.2865 
11.4491 88.7412 82.1819 
11.6916 86.8958 83.0578 
12.1665 85.5094 84.0503 
11.8919 85.641 84.6176 
11.6873 85.3659 85.3496 
11.8062 84.2862 86.8461 
12.1324 83 86.8631 
12.2068 82.7161 86.5223 
12.2629 82.3782 86.0454 
12.5121 81.6783 85.9674 
13.2888 79.6905 84.7599 
13.74 79.1421 83.6433 
15.3523 78.2661 82.1084 
15.8737 79.0755 81.4735 
14.9919 81.091 81.5498 
13.6092 82.5229 82.5161 
13.1883 83.1135 82.9275 
12.047 84.1945 84.749 
11.7143 84.662 85.8246 
11.8129 84.503 87.1748 
11.7756 84.5513 87.7559 
11.9336 84.1465 88.4415 
12.1624 83.6304 88.9669 
12.4002 82.8345 88.9997 
12.8321 81.3868 88.5579 
13.8667 79.6689 87.7323 
15.1001 78.7607 87.4483 
15.5157 78.0545 86.7998 
15.735 77.6963 85.9423 
16.1451 77.4755 85.5473 
16.3202 77.2853 84.9094 
16.4235 77.2195 84.7602 
16.3991 77.2008 84.631 
16.1934 77.1864 84.1801 
15.4365 77.7322 82.7278 
15.532 78.6398 81.9566 
15.451 81.1298 81.4668 
14.66 82.4599 81.8668 
14.1424 82.8375 80.6439 
13.1522 83.6877 83.0334 
12.5344 84.4663 83.7619 
11.661 86.0809 85.4169 
11.3718 87.1711 86.0343 
12.6598 86.0501 88.7591 
13.7523 84.41 90.6546 
13.7877 83.9301 90.291 
13.525 83.7778 90.5842 
12.7566 82.504 90.5102 
12.5731 82.5708 90.9654 
12.8842 82.9823 92.6369 
12.5942 82.6955 93.0222 
12.5112 82.0322 93.4909 
12.4521 81.8451 93.5285 
12.801 80.7942 94.7612 
13.2847 79.2974 94.6055 
13.4604 78.4163 94.3186 
13.5733 77.8535 94.1631 
13.4364 76.8105 92.6144 
14.1023 75.2685 90.7537 
14.4671 74.996 89.7365 
16.084 74.2697 87.9622 
16.8012 75.5872 86.9674 
17.0591 77.8361 85.3277 
16.91 78.8724 85.5834 
16.6649 79.0877 85.9742 
15.2142 79.0032 86.3975 
14.4437 79.318 86.7686 
13.0521 80.6404 87.8447 
12.379 81.7078 88.7004 
11.8324 82.0245 90.279 
11.7459 82.1658 91.3617 
12.0336 82.7013 92.3588 
12.1065 82.6725 92.8825 
13.7757 81.39 94.8533 
15.021 79.0486 94.4778 
16.2907 78.1278 94.4067 
17.4956 77.325 93.5387 
18.1004 76.8542 92.9072 
17.9063 75.1677 91.665 
17.5256 74.189 90.9344 
16.8243 73.5434 90.2707 
15.9688 73.287 89.2251 
15.9968 72.7049 88.6314 
16.0375 73.2298 88.7981 
15.5432 73.8604 87.6323 
15.5278 75.8098 86.3929 
15.117 78.3532 86.4133 
14.7733 79.2051 86.5419 
13.8511 79.8412 87.1771 
12.6028 81.2609 88.3583 
12.1671 81.8956 89.4851 
11.8602 82.8964 90.9202 
12.6637 83.2644 92.7792 
12.5879 83.2547 92.8547 
12.6031 83.2593 92.9067 
12.6045 83.2319 92.8818 
12.7205 83.2211 93.3859 
13.1097 81.0527 94.5665 
14.2103 79.5758 94.4769 
16.1523 78.3116 94.6646 
16.8482 78.2255 94.437 
16.9625 78.2012 94.585 
16.8401 78.4134 94.8586 
16.2715 79.7401 95.4725 
16.4488 79.4314 96.1274 
16.5571 79.3598 96.5296 
16.5548 79.6122 96.9343 
16.7176 80.0318 97.7224 
16.7508 80.0611 97.7512 
16.8105 79.9362 98.0229 
16.9946 79.5216 98.3478 
17.8659 77.8169 98.2659 
18.144 77.4992 98.1834 
19.9176 76.2279 98.2266 
21.2177 75.2114 97.0402 
22.2975 75.5632 96.2902 
21.5991 73.9932 95.9301 
21.1901 73.4858 95.3272 
20.4734 73.0479 94.726 
19.3994 73.9429 93.2197 
19.4444 74.4701 92.7699 
19.9521 75.7501 91.9307 
20.1925 76.475 91.9242 
19.4087 77.5431 92.3208 
18.9667 77.7406 92.3823 
18.7237 77.5262 92.6972 
18.2903 77.237 93.2527 
17.6743 77.1977 94.5701 
17.5406 77.5221 95.8706 
17.4764 77.5584 95.99 
17.4076 77.689 96.0894 
16.8983 78.6423 96.7016 
17.1041 78.3119 97.0401 
17.2033 78.5045 97.865 
17.5894 78.4656 98.4766 
19.365 77.6253 98.7784 
20.855 77.4414 98.7528 
21.8709 76.8837 97.4782 
21.3561 75.6527 97.2723 
20.2499 74.4733 96.7844 
18.3639 74.5008 94.4997 
18.3336 76.4816 93.6321 
18.9773 77.6561 92.5006 
18.1684 77.3662 93.3072 
17.2839 77.8373 94.066 
16.4359 79.168 95.4221 
15.9186 79.071 95.0471 
15.7344 78.9368 94.8855 
14.4226 78.9588 94.2608 
13.6561 79.0847 94.0629 
12.5857 79.2495 93.1733 
11.9802 79.99 92.3566 
11.941 79.9286 91.2665 
11.9513 80.4836 90.4887 
12.3225 80.0298 88.899 
3 3 2 1 
3 43 9 7 
3 88 65 64 
3 4 3 1 
3 38 18 4 
3 40 6 5 
3 31 8 9 
3 20 18 17 
3 43 12 10 
3 22 20 17 
3 38 1 5 
3 38 5 0 
3 19 4 18 
3 20 19 18 
3 12 11 10 
3 5 1 2 
3 36 0 14 
3 6 0 5 
3 31 13 8 
3 14 0 6 
3 44 31 30 
3 14 6 7 
3 85 48 47 
3 9 8 7 
3 42 11 12 
3 87 29 46 
3 88 62 61 
3 12 7 6 
3 83 24 25 
3 13 7 8 
3 37 15 0 
3 14 7 13 
3 36 35 16 
3 23 20 22 
3 38 4 1 
3 19 3 4 
3 38 37 16 
3 19 2 3 
3 38 16 17 
3 39 5 2 
3 81 24 23 
3 41 40 24 
3 56 54 53 
3 24 20 23 
3 167 107 22 
3 56 55 54 
3 40 39 19 
3 23 22 21 
3 88 53 52 
3 81 59 24 
3 62 49 48 
3 40 19 20 
3 29 10 11 
3 83 41 24 
3 47 28 27 
3 42 26 27 
3 43 10 30 
3 42 27 28 
3 45 44 30 
3 46 29 11 
3 31 9 30 
3 30 10 29 
3 44 32 31 
3 33 14 13 
3 32 13 31 
3 33 13 32 
3 34 14 33 
3 35 14 34 
3 37 36 16 
3 36 14 35 
3 38 15 37 
3 37 0 36 
3 38 0 15 
3 38 17 18 
3 39 2 19 
3 40 20 24 
3 42 12 6 
3 40 5 39 
3 83 26 42 
3 41 6 40 
3 46 11 42 
3 42 6 41 
3 43 30 9 
3 43 7 12 
3 45 30 29 
3 46 42 28 
3 87 63 65 
3 88 56 53 
3 87 46 28 
3 88 61 60 
3 48 28 47 
3 68 67 54 
3 87 28 48 
3 60 59 56 
3 87 86 49 
3 133 90 55 
3 88 52 51 
3 80 59 58 
3 66 51 54 
3 88 60 56 
3 54 52 53 
3 80 57 56 
3 54 51 52 
3 82 60 25 
3 67 66 54 
3 110 78 73 
3 134 89 91 
3 58 21 22 
3 112 91 90 
3 77 76 75 
3 131 110 73 
3 60 26 25 
3 81 23 21 
3 85 61 62 
3 82 59 60 
3 85 62 48 
3 61 26 60 
3 88 50 63 
3 85 84 61 
3 87 49 63 
3 63 49 62 
3 64 63 50 
3 88 51 65 
3 65 63 64 
3 199 93 92 
3 66 65 51 
3 89 68 54 
3 197 117 95 
3 195 118 194 
3 136 66 67 
3 131 73 72 
3 136 67 68 
3 110 79 78 
3 112 70 92 
3 130 72 74 
3 199 137 93 
3 78 75 74 
3 141 94 96 
3 78 77 75 
3 143 118 104 
3 78 74 73 
3 74 72 73 
3 108 78 79 
3 148 104 129 
3 108 58 22 
3 76 74 75 
3 108 79 80 
3 107 74 76 
3 111 55 56 
3 108 107 77 
3 79 56 57 
3 109 108 77 
3 80 79 57 
3 80 56 59 
3 81 21 58 
3 81 58 59 
3 82 25 24 
3 82 24 59 
3 83 25 26 
3 83 42 41 
3 84 27 26 
3 84 26 61 
3 85 47 27 
3 85 27 84 
3 86 48 49 
3 87 45 29 
3 87 48 86 
3 88 64 50 
3 88 63 62 
3 89 54 55 
3 90 89 55 
3 111 71 70 
3 134 68 89 
3 133 70 112 
3 91 89 90 
3 94 70 71 
3 136 68 135 
3 194 143 102 
3 135 68 113 
3 118 96 94 
3 135 92 93 
3 102 100 99 
3 115 114 93 
3 143 104 103 
3 137 115 93 
3 140 139 138 
3 102 101 100 
3 197 196 117 
3 130 118 94 
3 130 94 71 
3 185 157 156 
3 101 99 100 
3 118 97 96 
3 193 119 101 
3 130 71 72 
3 153 151 150 
3 187 170 169 
3 148 128 126 
3 107 106 74 
3 119 103 104 
3 186 124 123 
3 188 171 122 
3 107 76 77 
3 108 80 58 
3 108 22 107 
3 109 77 78 
3 109 78 108 
3 131 71 111 
3 132 56 79 
3 133 111 70 
3 132 111 56 
3 112 92 69 
3 112 69 91 
3 134 113 68 
3 134 69 92 
3 138 116 115 
3 197 95 96 
3 136 65 66 
3 140 138 137 
3 117 115 116 
3 196 195 98 
3 195 194 99 
3 130 129 104 
3 193 103 119 
3 191 148 144 
3 189 145 127 
3 192 151 101 
3 170 168 166 
3 176 150 147 
3 186 172 124 
3 181 158 180 
3 189 146 145 
3 124 121 122 
3 176 153 150 
3 124 122 123 
3 189 121 125 
3 125 121 124 
3 148 126 120 
3 128 127 126 
3 188 122 121 
3 145 126 127 
3 129 105 128 
3 128 121 127 
3 130 104 118 
3 130 106 105 
3 130 74 106 
3 130 105 129 
3 131 72 71 
3 132 110 131 
3 132 79 110 
3 132 131 111 
3 133 112 90 
3 133 55 111 
3 134 91 69 
3 135 113 134 
3 135 134 92 
3 135 93 114 
3 136 135 114 
3 136 114 115 
3 199 94 137 
3 198 141 95 
3 198 117 116 
3 138 115 137 
3 140 137 94 
3 198 116 138 
3 141 140 94 
3 198 95 117 
3 141 96 95 
3 198 139 140 
3 195 99 98 
3 142 97 118 
3 193 143 103 
3 194 102 99 
3 177 155 176 
3 190 144 148 
3 190 149 144 
3 145 120 126 
3 147 145 146 
3 147 120 145 
3 150 149 147 
3 153 152 151 
3 192 119 104 
3 148 129 128 
3 191 144 149 
3 149 120 147 
3 172 147 146 
3 192 191 149 
3 151 149 150 
3 172 146 125 
3 152 101 151 
3 178 177 174 
3 154 101 152 
3 186 165 185 
3 154 152 153 
3 155 101 154 
3 186 185 173 
3 179 174 156 
3 184 181 163 
3 168 167 166 
3 168 106 107 
3 184 163 159 
3 162 161 159 
3 182 161 162 
3 182 160 161 
3 182 163 181 
3 183 162 159 
3 186 123 166 
3 182 166 160 
3 182 165 166 
3 182 164 165 
3 171 170 166 
3 167 160 166 
3 169 105 106 
3 168 107 167 
3 170 128 105 
3 169 106 168 
3 171 166 123 
3 170 105 169 
3 171 123 122 
3 188 170 171 
3 172 125 124 
3 185 165 164 
3 185 156 174 
3 176 147 172 
3 177 175 174 
3 175 172 173 
3 176 155 154 
3 175 173 174 
3 176 154 153 
3 176 172 175 
3 179 178 174 
3 177 176 175 
3 179 101 155 
3 178 155 177 
3 179 155 178 
3 180 158 157 
3 185 164 180 
3 184 158 181 
3 181 180 164 
3 183 182 162 
3 182 181 164 
3 183 159 163 
3 183 163 182 
3 184 159 161 
3 185 180 157 
3 185 174 173 
3 186 166 165 
3 186 173 172 
3 187 169 168 
3 187 168 170 
3 188 121 128 
3 188 128 170 
3 189 127 121 
3 189 125 146 
3 190 148 120 
3 190 120 149 
3 192 149 151 
3 192 104 148 
3 192 101 119 
3 192 148 191 
3 193 101 102 
3 193 102 143 
3 195 142 118 
3 194 118 143 
3 196 142 195 
3 196 97 142 
3 196 115 117 
3 197 96 97 
3 197 97 196 
3 198 138 139 
3 198 140 141 
3 199 92 70 
3 199 70 94 
